<?xml version="1.0" standalone="yes"?>
<svg width="35" height="35">
<path style="fill:#ffffff; stroke:none;" d="M0 0L0 1L0 2L0 3L0 4L0 5L0 6L0 7L0 8L0 9L0 10L0 11L0 12L0 13L0 14L1 14L1 13L1 12L1 11L2 11L2 10L2 9L3 9L3 8L3 7L4 7L4 6L5 6L5 5L6 5L6 4L7 4L7 3L8 3L9 3L9 2L10 2L11 2L11 1L12 1L13 1L14 1L15 1L15 0L14 0L13 0L12 0L11 0L10 0L9 0L8 0L7 0L6 0L5 0L4 0L3 0L2 0L0 0z"/>
<path style="fill:#bfbfbf; stroke:none;" d="M15 0L15 1L16 1L17 1L17 0L15 0z"/>
<path style="fill:#9f9f9f; stroke:none;" d="M17 0L17 1L18 1L17 0z"/>
<path style="fill:#afafaf; stroke:none;" d="M18 0L18 1L19 1L18 0z"/>
<path style="fill:#bfbfbf; stroke:none;" d="M19 0L19 1L20 1L21 1L21 0L19 0z"/>
<path style="fill:#ffffff; stroke:none;" d="M21 0L21 1L22 1L23 1L24 1L25 1L25 2L26 2L27 2L27 3L28 3L29 3L29 4L30 4L30 5L31 5L31 6L32 6L32 7L33 7L33 8L33 9L34 9L34 10L34 11L35 11L35 10L35 9L35 8L35 7L35 6L35 5L35 4L35 3L35 2L35 1L35 0L34 0L33 0L32 0L31 0L30 0L29 0L28 0L27 0L26 0L25 0L24 0L23 0L21 0z"/>
<path style="fill:#dfdfdf; stroke:none;" d="M11 1L11 2L12 2L11 1z"/>
<path style="fill:#707070; stroke:none;" d="M12 1L12 2L13 2L12 1z"/>
<path style="fill:#303030; stroke:none;" d="M13 1L13 2L14 2L13 1z"/>
<path style="fill:#000000; stroke:none;" d="M14 1L14 2L13 2L12 2L11 2L11 3L10 3L9 3L9 4L8 4L8 5L7 5L7 6L6 6L6 7L5 7L5 8L4 8L4 9L3 9L3 10L3 11L2 11L2 12L2 13L2 14L1 14L1 15L1 16L1 17L1 18L1 19L1 20L1 21L1 22L1 23L2 23L2 24L2 25L3 25L3 26L3 27L4 27L4 28L4 29L5 29L5 30L6 30L6 31L7 31L7 32L8 32L9 32L9 33L10 33L11 33L11 34L12 34L13 34L13 35L14 35L15 35L16 35L17 35L18 35L19 35L20 35L21 35L22 35L23 35L23 34L24 34L25 34L25 33L26 33L27 33L27 32L28 32L28 31L29 31L30 31L30 30L31 30L31 29L31 28L32 28L32 27L33 27L33 26L33 25L34 25L34 24L34 23L34 22L35 22L35 21L35 20L35 19L35 18L35 17L35 16L35 15L35 14L34 14L34 13L34 12L34 11L33 11L33 10L33 9L32 9L32 8L31 8L31 7L30 7L30 6L29 6L29 5L28 5L28 4L27 4L27 3L26 3L25 3L25 2L24 2L23 2L22 2L22 1L21 1L20 1L19 1L18 1L17 1L16 1L14 1z"/>
<path style="fill:#303030; stroke:none;" d="M22 1L22 2L23 2L22 1z"/>
<path style="fill:#7f7f7f; stroke:none;" d="M23 1L23 2L24 2L23 1z"/>
<path style="fill:#dfdfdf; stroke:none;" d="M24 1L24 2L25 2L24 1z"/>
<path style="fill:#bfbfbf; stroke:none;" d="M9 2L9 3L10 3L9 2z"/>
<path style="fill:#404040; stroke:none;" d="M10 2L10 3L11 3L10 2M25 2L25 3L26 3L25 2z"/>
<path style="fill:#cfcfcf; stroke:none;" d="M26 2L26 3L27 3L26 2z"/>
<path style="fill:#efefef; stroke:none;" d="M7 3L7 4L8 4L7 3z"/>
<path style="fill:#505050; stroke:none;" d="M8 3L8 4L9 4L8 3z"/>
<path style="fill:#101010; stroke:none;" d="M12 3L12 4L13 4L12 3z"/>
<path style="fill:#606060; stroke:none;" d="M13 3L13 4L14 4L13 3z"/>
<path style="fill:#505050; stroke:none;" d="M14 3L14 4L15 4L14 3M21 3L21 4L22 4L21 3z"/>
<path style="fill:#606060; stroke:none;" d="M22 3L22 4L23 4L22 3z"/>
<path style="fill:#101010; stroke:none;" d="M23 3L23 4L24 4L23 3z"/>
<path style="fill:#707070; stroke:none;" d="M27 3L27 4L28 4L27 3z"/>
<path style="fill:#efefef; stroke:none;" d="M28 3L28 4L29 4L28 3z"/>
<path style="fill:#cfcfcf; stroke:none;" d="M6 4L6 5L5 5L5 6L4 6L4 7L5 7L5 6L6 6L6 5L7 5L6 4z"/>
<path style="fill:#202020; stroke:none;" d="M7 4L7 5L8 5L7 4M10 4L10 5L11 5L10 4z"/>
<path style="fill:#9f9f9f; stroke:none;" d="M11 4L11 5L12 5L11 4z"/>
<path style="fill:#ffffff; stroke:none;" d="M12 4L12 5L11 5L10 5L10 6L9 6L9 7L8 7L8 8L7 8L7 9L6 9L6 10L5 10L5 11L5 12L4 12L4 13L4 14L5 14L6 14L7 14L8 14L9 14L10 14L11 14L12 14L13 14L14 14L14 13L14 12L14 11L14 10L14 9L14 8L14 7L14 6L14 5L14 4L12 4z"/>
<path style="fill:#808080; stroke:none;" d="M14 4L14 5L14 6L14 7L14 8L14 9L14 10L14 11L14 12L14 13L14 14L13 14L12 14L11 14L10 14L9 14L8 14L7 14L6 14L5 14L4 14L4 15L5 15L6 15L7 15L8 15L9 15L10 15L11 15L12 15L13 15L14 15L14 14L15 14L15 13L15 12L15 11L15 10L15 9L15 8L15 7L15 6L15 5L14 4M21 4L21 5L21 6L21 7L21 8L21 9L21 10L21 11L21 12L21 13L21 14L22 14L22 15L23 15L24 15L25 15L26 15L27 15L28 15L29 15L30 15L31 15L32 15L32 14L31 14L30 14L29 14L28 14L27 14L26 14L25 14L24 14L23 14L22 14L22 13L22 12L22 11L22 10L22 9L22 8L22 7L22 6L22 5L21 4z"/>
<path style="fill:#ffffff; stroke:none;" d="M22 4L22 5L22 6L22 7L22 8L22 9L22 10L22 11L22 12L22 13L22 14L23 14L24 14L25 14L26 14L27 14L28 14L29 14L30 14L31 14L32 14L32 13L32 12L31 12L31 11L30 11L30 10L30 9L29 9L29 8L28 8L28 7L27 7L27 6L26 6L25 6L25 5L24 5L24 4L22 4z"/>
<path style="fill:#9f9f9f; stroke:none;" d="M24 4L24 5L25 5L24 4z"/>
<path style="fill:#202020; stroke:none;" d="M25 4L25 5L26 5L25 4z"/>
<path style="fill:#303030; stroke:none;" d="M28 4L28 5L29 5L28 4z"/>
<path style="fill:#cfcfcf; stroke:none;" d="M29 4L29 5L30 5L30 6L31 6L31 7L32 7L32 6L31 6L31 5L30 5L29 4z"/>
<path style="fill:#101010; stroke:none;" d="M6 5L6 6L7 6L6 5z"/>
<path style="fill:#808080; stroke:none;" d="M9 5L9 6L10 6L9 5z"/>
<path style="fill:#efefef; stroke:none;" d="M25 5L25 6L26 6L25 5z"/>
<path style="fill:#707070; stroke:none;" d="M26 5L26 6L27 6L26 5z"/>
<path style="fill:#101010; stroke:none;" d="M29 5L29 6L30 6L29 5M5 6L5 7L6 7L5 6M7 6L7 7L6 7L6 8L7 8L7 7L8 7L7 6z"/>
<path style="fill:#bfbfbf; stroke:none;" d="M8 6L8 7L9 7L8 6z"/>
<path style="fill:#afafaf; stroke:none;" d="M27 6L27 7L28 7L27 6z"/>
<path style="fill:#101010; stroke:none;" d="M28 6L28 7L29 7L29 8L30 8L30 7L29 7L28 6M30 6L30 7L31 7L30 6z"/>
<path style="fill:#efefef; stroke:none;" d="M3 7L3 8L4 8L3 7z"/>
<path style="fill:#101010; stroke:none;" d="M4 7L4 8L5 8L4 7z"/>
<path style="fill:#cfcfcf; stroke:none;" d="M7 7L7 8L8 8L7 7M28 7L28 8L29 8L28 7z"/>
<path style="fill:#202020; stroke:none;" d="M31 7L31 8L32 8L31 7z"/>
<path style="fill:#efefef; stroke:none;" d="M32 7L32 8L33 8L32 7z"/>
<path style="fill:#505050; stroke:none;" d="M3 8L3 9L4 9L3 8z"/>
<path style="fill:#cfcfcf; stroke:none;" d="M6 8L6 9L7 9L6 8z"/>
<path style="fill:#afafaf; stroke:none;" d="M29 8L29 9L30 9L29 8z"/>
<path style="fill:#707070; stroke:none;" d="M32 8L32 9L33 9L32 8z"/>
<path style="fill:#bfbfbf; stroke:none;" d="M2 9L2 10L3 10L2 9z"/>
<path style="fill:#808080; stroke:none;" d="M5 9L5 10L6 10L5 9z"/>
<path style="fill:#707070; stroke:none;" d="M30 9L30 10L31 10L30 9z"/>
<path style="fill:#bfbfbf; stroke:none;" d="M33 9L33 10L34 10L33 9z"/>
<path style="fill:#202020; stroke:none;" d="M2 10L2 11L3 11L2 10z"/>
<path style="fill:#303030; stroke:none;" d="M4 10L4 11L5 11L4 10z"/>
<path style="fill:#efefef; stroke:none;" d="M30 10L30 11L31 11L30 10z"/>
<path style="fill:#202020; stroke:none;" d="M31 10L31 11L32 11L31 10z"/>
<path style="fill:#404040; stroke:none;" d="M33 10L33 11L34 11L33 10z"/>
<path style="fill:#bfbfbf; stroke:none;" d="M1 11L1 12L2 12L1 11z"/>
<path style="fill:#afafaf; stroke:none;" d="M4 11L4 12L5 12L4 11z"/>
<path style="fill:#9f9f9f; stroke:none;" d="M31 11L31 12L32 12L31 11z"/>
<path style="fill:#cfcfcf; stroke:none;" d="M34 11L34 12L35 12L34 11z"/>
<path style="fill:#606060; stroke:none;" d="M1 12L1 13L2 13L1 12z"/>
<path style="fill:#202020; stroke:none;" d="M3 12L3 13L4 13L3 12M32 12L32 13L33 13L32 12z"/>
<path style="fill:#707070; stroke:none;" d="M34 12L34 13L35 13L34 12z"/>
<path style="fill:#101010; stroke:none;" d="M1 13L1 14L2 14L1 13z"/>
<path style="fill:#8f8f8f; stroke:none;" d="M3 13L3 14L4 14L3 13z"/>
<path style="fill:#707070; stroke:none;" d="M32 13L32 14L33 14L32 13z"/>
<path style="fill:#202020; stroke:none;" d="M34 13L34 14L35 14L34 13z"/>
<path style="fill:#cfcfcf; stroke:none;" d="M0 14L0 15L1 15L0 14z"/>
<path style="fill:#606060; stroke:none;" d="M3 14L3 15L4 15L3 14z"/>
<path style="fill:#404040; stroke:none;" d="M14 14L14 15L15 15L14 14M21 14L21 15L22 15L21 14z"/>
<path style="fill:#606060; stroke:none;" d="M32 14L32 15L33 15L32 14z"/>
<path style="fill:#afafaf; stroke:none;" d="M0 15L0 16L1 16L0 15z"/>
<path style="fill:#7f7f7f; stroke:none;" d="M0 16L0 17L0 18L0 19L0 20L1 20L1 19L1 18L1 17L0 16z"/>
<path style="fill:#9f9f9f; stroke:none;" d="M0 20L0 21L1 21L0 20z"/>
<path style="fill:#bfbfbf; stroke:none;" d="M0 21L0 22L1 22L0 21z"/>
<path style="fill:#606060; stroke:none;" d="M3 21L3 22L4 22L3 21z"/>
<path style="fill:#808080; stroke:none;" d="M4 21L4 22L5 22L6 22L7 22L8 22L9 22L10 22L11 22L12 22L13 22L14 22L14 23L14 24L14 25L14 26L14 27L14 28L14 29L14 30L14 31L14 32L15 32L15 31L15 30L15 29L15 28L15 27L15 26L15 25L15 24L15 23L15 22L14 22L14 21L13 21L12 21L11 21L10 21L9 21L8 21L7 21L6 21L4 21z"/>
<path style="fill:#404040; stroke:none;" d="M14 21L14 22L15 22L14 21M21 21L21 22L22 22L21 21z"/>
<path style="fill:#808080; stroke:none;" d="M22 21L22 22L21 22L21 23L21 24L21 25L21 26L21 27L21 28L21 29L21 30L21 31L21 32L22 32L22 31L22 30L22 29L22 28L22 27L22 26L22 25L22 24L22 23L22 22L23 22L24 22L25 22L26 22L27 22L28 22L29 22L30 22L31 22L32 22L32 23L33 23L33 22L32 22L32 21L31 21L30 21L29 21L28 21L27 21L26 21L25 21L24 21L22 21z"/>
<path style="fill:#606060; stroke:none;" d="M32 21L32 22L33 22L32 21z"/>
<path style="fill:#ffffff; stroke:none;" d="M0 22L0 23L0 24L0 25L0 26L0 27L0 28L0 29L0 30L0 31L0 32L0 33L0 34L0 35L1 35L2 35L3 35L4 35L5 35L6 35L7 35L8 35L9 35L10 35L10 34L9 34L9 33L8 33L7 33L7 32L6 32L6 31L5 31L5 30L4 30L4 29L3 29L3 28L3 27L2 27L2 26L2 25L1 25L1 24L1 23L0 22z"/>
<path style="fill:#9f9f9f; stroke:none;" d="M3 22L3 23L4 23L3 22z"/>
<path style="fill:#ffffff; stroke:none;" d="M4 22L4 23L4 24L5 24L5 25L5 26L6 26L6 27L7 27L7 28L8 28L8 29L9 29L9 30L10 30L10 31L11 31L12 31L12 32L13 32L14 32L14 31L14 30L14 29L14 28L14 27L14 26L14 25L14 24L14 23L14 22L13 22L12 22L11 22L10 22L9 22L8 22L7 22L6 22L4 22M22 22L22 23L22 24L22 25L22 26L22 27L22 28L22 29L22 30L22 31L22 32L23 32L24 32L24 31L25 31L26 31L26 30L27 30L27 29L28 29L28 28L29 28L29 27L30 27L30 26L31 26L31 25L31 24L32 24L32 23L32 22L31 22L30 22L29 22L28 22L27 22L26 22L25 22L24 22L22 22z"/>
<path style="fill:#101010; stroke:none;" d="M34 22L34 23L35 23L34 22z"/>
<path style="fill:#505050; stroke:none;" d="M1 23L1 24L2 24L1 23z"/>
<path style="fill:#404040; stroke:none;" d="M3 23L3 24L4 24L3 23z"/>
<path style="fill:#202020; stroke:none;" d="M32 23L32 24L33 24L32 23z"/>
<path style="fill:#606060; stroke:none;" d="M34 23L34 24L35 24L34 23z"/>
<path style="fill:#9f9f9f; stroke:none;" d="M1 24L1 25L2 25L1 24z"/>
<path style="fill:#bfbfbf; stroke:none;" d="M4 24L4 25L5 25L4 24M31 24L31 25L32 25L31 24z"/>
<path style="fill:#afafaf; stroke:none;" d="M34 24L34 25L35 25L34 24z"/>
<path style="fill:#202020; stroke:none;" d="M2 25L2 26L3 26L2 25z"/>
<path style="fill:#404040; stroke:none;" d="M4 25L4 26L5 26L4 25M31 25L31 26L32 26L31 25z"/>
<path style="fill:#202020; stroke:none;" d="M33 25L33 26L34 26L33 25z"/>
<path style="fill:#ffffff; stroke:none;" d="M34 25L34 26L34 27L33 27L33 28L33 29L32 29L32 30L31 30L31 31L30 31L30 32L29 32L29 33L28 33L27 33L27 34L26 34L25 34L25 35L26 35L27 35L28 35L29 35L30 35L31 35L32 35L33 35L34 35L35 35L35 34L35 33L35 32L35 31L35 30L35 29L35 28L35 27L35 26L34 25z"/>
<path style="fill:#8f8f8f; stroke:none;" d="M2 26L2 27L3 27L2 26z"/>
<path style="fill:#afafaf; stroke:none;" d="M5 26L5 27L6 27L5 26z"/>
<path style="fill:#8f8f8f; stroke:none;" d="M30 26L30 27L31 27L30 26z"/>
<path style="fill:#9f9f9f; stroke:none;" d="M33 26L33 27L34 27L33 26z"/>
<path style="fill:#303030; stroke:none;" d="M3 27L3 28L4 28L3 27z"/>
<path style="fill:#101010; stroke:none;" d="M5 27L5 28L6 28L5 27z"/>
<path style="fill:#dfdfdf; stroke:none;" d="M6 27L6 28L7 28L6 27z"/>
<path style="fill:#cfcfcf; stroke:none;" d="M29 27L29 28L30 28L29 27z"/>
<path style="fill:#101010; stroke:none;" d="M30 27L30 28L31 28L30 27z"/>
<path style="fill:#404040; stroke:none;" d="M32 27L32 28L33 28L32 27z"/>
<path style="fill:#cfcfcf; stroke:none;" d="M3 28L3 29L4 29L3 28z"/>
<path style="fill:#303030; stroke:none;" d="M6 28L6 29L7 29L7 30L8 30L8 29L7 29L6 28z"/>
<path style="fill:#efefef; stroke:none;" d="M7 28L7 29L8 29L7 28M28 28L28 29L29 29L28 28z"/>
<path style="fill:#202020; stroke:none;" d="M29 28L29 29L30 29L29 28z"/>
<path style="fill:#101010; stroke:none;" d="M31 28L31 29L32 29L31 28z"/>
<path style="fill:#dfdfdf; stroke:none;" d="M32 28L32 29L33 29L32 28z"/>
<path style="fill:#9f9f9f; stroke:none;" d="M4 29L4 30L5 30L4 29z"/>
<path style="fill:#efefef; stroke:none;" d="M8 29L8 30L9 30L8 29z"/>
<path style="fill:#cfcfcf; stroke:none;" d="M27 29L27 30L28 30L27 29z"/>
<path style="fill:#303030; stroke:none;" d="M28 29L28 30L29 30L28 29z"/>
<path style="fill:#afafaf; stroke:none;" d="M31 29L31 30L32 30L31 29z"/>
<path style="fill:#9f9f9f; stroke:none;" d="M5 30L5 31L6 31L5 30z"/>
<path style="fill:#101010; stroke:none;" d="M8 30L8 31L9 31L8 30z"/>
<path style="fill:#afafaf; stroke:none;" d="M9 30L9 31L10 31L9 30M26 30L26 31L27 31L26 30z"/>
<path style="fill:#101010; stroke:none;" d="M27 30L27 31L28 31L27 30z"/>
<path style="fill:#9f9f9f; stroke:none;" d="M30 30L30 31L31 31L30 30M6 31L6 32L7 32L6 31z"/>
<path style="fill:#505050; stroke:none;" d="M10 31L10 32L11 32L10 31z"/>
<path style="fill:#dfdfdf; stroke:none;" d="M11 31L11 32L12 32L11 31z"/>
<path style="fill:#bfbfbf; stroke:none;" d="M24 31L24 32L25 32L24 31z"/>
<path style="fill:#404040; stroke:none;" d="M25 31L25 32L26 32L25 31z"/>
<path style="fill:#101010; stroke:none;" d="M28 31L28 32L29 32L28 31z"/>
<path style="fill:#afafaf; stroke:none;" d="M29 31L29 32L30 32L29 31z"/>
<path style="fill:#cfcfcf; stroke:none;" d="M7 32L7 33L8 33L7 32z"/>
<path style="fill:#303030; stroke:none;" d="M8 32L8 33L9 33L8 32z"/>
<path style="fill:#404040; stroke:none;" d="M12 32L12 33L13 33L12 32z"/>
<path style="fill:#9f9f9f; stroke:none;" d="M13 32L13 33L14 33L13 32z"/>
<path style="fill:#707070; stroke:none;" d="M14 32L14 33L15 33L14 32z"/>
<path style="fill:#606060; stroke:none;" d="M21 32L21 33L22 33L21 32z"/>
<path style="fill:#9f9f9f; stroke:none;" d="M22 32L22 33L23 33L22 32z"/>
<path style="fill:#404040; stroke:none;" d="M23 32L23 33L24 33L23 32z"/>
<path style="fill:#303030; stroke:none;" d="M27 32L27 33L28 33L27 32z"/>
<path style="fill:#cfcfcf; stroke:none;" d="M28 32L28 33L29 33L28 32z"/>
<path style="fill:#7f7f7f; stroke:none;" d="M9 33L9 34L10 34L9 33z"/>
<path style="fill:#101010; stroke:none;" d="M10 33L10 34L11 34L10 33z"/>
<path style="fill:#202020; stroke:none;" d="M25 33L25 34L26 34L25 33z"/>
<path style="fill:#9f9f9f; stroke:none;" d="M26 33L26 34L27 34L26 33z"/>
<path style="fill:#efefef; stroke:none;" d="M10 34L10 35L11 35L10 34z"/>
<path style="fill:#9f9f9f; stroke:none;" d="M11 34L11 35L12 35L11 34z"/>
<path style="fill:#404040; stroke:none;" d="M12 34L12 35L13 35L12 34z"/>
<path style="fill:#505050; stroke:none;" d="M23 34L23 35L24 35L23 34z"/>
<path style="fill:#9f9f9f; stroke:none;" d="M24 34L24 35L25 35L24 34z"/>
</svg>
