<?xml version="1.0" standalone="yes"?>
<svg width="42" height="17">
<path style="fill:#96ceac; stroke:none;" d="M0 0L1 1L0 0z"/>
<path style="fill:#afd5ba; stroke:none;" d="M1 0L1 1L0 1L0 12L1 12L1 13L2 13L2 14L3 14L3 13L4 13L4 12L5 12L5 11L6 11L6 10L7 10L7 9L8 9L8 8L9 8L9 6L8 6L8 5L7 5L7 4L6 4L6 3L5 3L5 2L4 2L4 1L3 1L1 0z"/>
<path style="fill:#a7d3b5; stroke:none;" d="M3 0L3 1L4 1L4 2L5 2L5 3L6 3L6 4L7 4L7 5L8 5L8 6L9 6L9 7L10 7L10 6L9 6L9 5L8 5L8 4L7 4L7 3L6 3L6 2L5 2L5 1L4 1L3 0z"/>
<path style="fill:#45b77e; stroke:none;" d="M4 0L4 1L5 1L5 2L6 2L6 3L7 3L7 4L8 4L8 5L9 5L9 6L10 6L10 5L9 5L9 4L8 4L8 3L7 3L7 2L6 2L6 1L5 1L4 0z"/>
<path style="fill:#2cb070; stroke:none;" d="M5 0L5 1L6 1L6 2L7 2L7 3L8 3L8 4L9 4L9 5L10 5L10 6L11 6L11 7L10 7L10 8L9 8L9 9L8 9L8 10L7 10L7 11L6 11L6 12L5 12L5 13L4 13L4 14L3 14L3 15L1 15L1 14L0 14L0 16L1 16L1 17L4 17L4 15L5 15L5 14L6 14L6 13L7 13L7 12L8 12L8 11L9 11L9 10L10 10L10 9L11 9L11 8L13 8L13 9L14 9L14 10L15 10L15 11L16 11L16 12L17 12L17 13L18 13L18 14L19 14L19 15L20 15L20 17L23 17L23 16L24 16L24 15L25 15L25 14L26 14L26 13L27 13L27 12L28 12L28 11L29 11L29 10L30 10L30 9L31 9L31 8L33 8L33 9L34 9L34 10L35 10L35 11L36 11L36 12L37 12L37 13L38 13L38 14L39 14L39 15L40 15L40 17L42 17L42 15L41 15L41 14L40 14L40 13L39 13L39 12L38 12L38 11L37 11L37 10L36 10L36 9L35 9L35 8L34 8L34 7L33 7L33 6L34 6L34 5L35 5L35 4L36 4L36 3L37 3L37 2L38 2L38 1L39 1L39 0L37 0L37 1L36 1L36 2L35 2L35 3L34 3L34 4L33 4L33 5L31 5L31 4L30 4L30 3L29 3L29 2L28 2L28 1L27 1L27 0L25 0L25 1L26 1L26 2L27 2L27 3L28 3L28 4L29 4L29 5L30 5L30 8L29 8L29 9L28 9L28 10L27 10L27 11L26 11L26 12L25 12L25 13L24 13L24 14L23 14L23 15L21 15L21 14L20 14L20 13L19 13L19 12L18 12L18 11L17 11L17 10L16 10L16 9L15 9L15 8L14 8L14 7L13 7L13 6L14 6L14 5L15 5L15 4L16 4L16 3L17 3L17 2L18 2L18 1L19 1L19 0L17 0L17 1L16 1L16 2L15 2L15 3L14 3L14 4L13 4L13 5L11 5L11 4L10 4L10 3L9 3L9 2L8 2L8 1L7 1L5 0z"/>
<path style="fill:#5dbe8c; stroke:none;" d="M7 0L7 1L8 1L8 2L9 2L9 3L10 3L10 4L11 4L11 5L13 5L13 4L14 4L14 3L15 3L15 2L16 2L16 1L17 1L17 0L16 0L16 1L15 1L15 2L14 2L14 3L13 3L13 4L11 4L11 3L10 3L10 2L9 2L9 1L8 1L7 0z"/>
<path style="fill:#afd5ba; stroke:none;" d="M8 0L8 1L9 1L9 2L10 2L10 3L11 3L11 4L13 4L13 3L14 3L14 2L15 2L15 1L16 1L8 0z"/>
<path style="fill:#45b77e; stroke:none;" d="M19 0L19 1L18 1L18 2L17 2L17 3L16 3L16 4L15 4L15 5L14 5L14 6L15 6L15 5L16 5L16 4L17 4L17 3L18 3L18 2L19 2L19 1L20 1L19 0z"/>
<path style="fill:#a7d3b5; stroke:none;" d="M20 0L20 1L19 1L19 2L18 2L18 3L17 3L17 4L16 4L16 5L15 5L15 6L14 6L14 7L15 7L15 6L16 6L16 5L17 5L17 4L18 4L18 3L19 3L19 2L20 2L20 1L21 1L20 0z"/>
<path style="fill:#afd5ba; stroke:none;" d="M21 0L21 1L20 1L20 2L19 2L19 3L18 3L18 4L17 4L17 5L16 5L16 6L15 6L15 8L16 8L16 9L17 9L17 10L18 10L18 11L19 11L19 12L20 12L20 13L21 13L21 14L22 14L22 13L23 13L23 12L24 12L24 11L25 11L25 10L26 10L26 9L27 9L27 8L28 8L28 7L29 7L29 6L28 6L28 5L27 5L27 4L26 4L26 3L25 3L25 2L24 2L24 1L23 1L21 0z"/>
<path style="fill:#96ceac; stroke:none;" d="M23 0L23 1L24 1L24 2L25 2L25 3L26 3L26 4L27 4L27 5L28 5L28 6L29 6L29 5L28 5L28 4L27 4L27 3L26 3L26 2L25 2L25 1L24 1L23 0z"/>
<path style="fill:#34b275; stroke:none;" d="M24 0L25 1L24 0z"/>
<path style="fill:#7ec79e; stroke:none;" d="M27 0L27 1L28 1L28 2L29 2L29 3L30 3L30 4L31 4L31 3L30 3L30 2L29 2L29 1L28 1L27 0z"/>
<path style="fill:#afd5ba; stroke:none;" d="M28 0L28 1L29 1L29 2L30 2L30 3L31 3L31 4L32 4L32 3L33 3L33 2L34 2L34 1L35 1L28 0z"/>
<path style="fill:#a7d3b5; stroke:none;" d="M35 0L35 1L34 1L34 2L33 2L33 3L32 3L32 4L33 4L33 3L34 3L34 2L35 2L35 1L36 1L35 0z"/>
<path style="fill:#45b77e; stroke:none;" d="M36 0L37 1L36 0z"/>
<path style="fill:#5dbe8c; stroke:none;" d="M39 0L39 1L38 1L38 2L37 2L37 3L36 3L36 4L35 4L35 5L34 5L34 6L35 6L35 5L36 5L36 4L37 4L37 3L38 3L38 2L39 2L39 1L40 1L39 0z"/>
<path style="fill:#afd5ba; stroke:none;" d="M40 0L40 1L39 1L39 2L38 2L38 3L37 3L37 4L36 4L36 5L35 5L35 6L34 6L34 7L35 7L35 8L36 8L36 9L37 9L37 10L38 10L38 11L39 11L39 12L40 12L40 13L41 13L41 14L42 14L42 0L40 0z"/>
<path style="fill:#34b275; stroke:none;" d="M25 1L26 2L25 1z"/>
<path style="fill:#45b77e; stroke:none;" d="M35 1L36 2L35 1z"/>
<path style="fill:#34b275; stroke:none;" d="M26 2L27 3L26 2z"/>
<path style="fill:#45b77e; stroke:none;" d="M34 2L35 3L34 2z"/>
<path style="fill:#34b275; stroke:none;" d="M27 3L28 4L27 3z"/>
<path style="fill:#45b77e; stroke:none;" d="M33 3L34 4L33 3z"/>
<path style="fill:#34b275; stroke:none;" d="M28 4L29 5L28 4z"/>
<path style="fill:#76c59a; stroke:none;" d="M31 4L32 5L31 4z"/>
<path style="fill:#45b77e; stroke:none;" d="M32 4L33 5L32 4z"/>
<path style="fill:#34b275; stroke:none;" d="M29 5L30 6L29 5M10 6L11 7L10 6M13 6L14 7L13 6z"/>
<path style="fill:#8ecca8; stroke:none;" d="M29 6L30 7L29 6z"/>
<path style="fill:#4db983; stroke:none;" d="M33 6L34 7L33 6z"/>
<path style="fill:#5dbe8c; stroke:none;" d="M9 7L10 8L9 7M14 7L15 8L14 7z"/>
<path style="fill:#a7d3b5; stroke:none;" d="M28 7L28 8L27 8L27 9L26 9L26 10L25 10L25 11L24 11L24 12L23 12L23 13L22 13L22 14L23 14L23 13L24 13L24 12L25 12L25 11L26 11L26 10L27 10L27 9L28 9L28 8L29 8L28 7z"/>
<path style="fill:#45b77e; stroke:none;" d="M29 7L30 8L29 7z"/>
<path style="fill:#7ec79e; stroke:none;" d="M34 7L35 8L34 7z"/>
<path style="fill:#5dbe8c; stroke:none;" d="M8 8L9 9L8 8z"/>
<path style="fill:#45b77e; stroke:none;" d="M11 8L11 9L10 9L10 10L9 10L9 11L8 11L8 12L7 12L7 13L6 13L6 14L5 14L5 15L4 15L4 16L5 16L5 15L6 15L6 14L7 14L7 13L8 13L8 12L9 12L9 11L10 11L10 10L11 10L11 9L13 9L13 10L14 10L14 11L15 11L15 12L16 12L16 13L17 13L17 14L18 14L18 15L19 15L19 16L20 16L20 15L19 15L19 14L18 14L18 13L17 13L17 12L16 12L16 11L15 11L15 10L14 10L14 9L13 9L11 8z"/>
<path style="fill:#5dbe8c; stroke:none;" d="M15 8L16 9L15 8z"/>
<path style="fill:#45b77e; stroke:none;" d="M28 8L29 9L28 8z"/>
<path style="fill:#55bc87; stroke:none;" d="M31 8L32 9L31 8z"/>
<path style="fill:#34b275; stroke:none;" d="M32 8L32 9L33 9L33 10L34 10L34 11L35 11L35 12L36 12L36 13L37 13L37 14L38 14L38 15L39 15L39 16L40 16L40 15L39 15L39 14L38 14L38 13L37 13L37 12L36 12L36 11L35 11L35 10L34 10L34 9L33 9L32 8z"/>
<path style="fill:#7ec79e; stroke:none;" d="M35 8L36 9L35 8z"/>
<path style="fill:#5dbe8c; stroke:none;" d="M7 9L8 10L7 9z"/>
<path style="fill:#a7d3b5; stroke:none;" d="M11 9L11 10L10 10L10 11L9 11L9 12L8 12L8 13L7 13L7 14L6 14L6 15L5 15L5 16L6 16L6 15L7 15L7 14L8 14L8 13L9 13L9 12L10 12L10 11L11 11L11 10L13 10L13 11L14 11L14 12L15 12L15 13L16 13L16 14L17 14L17 15L18 15L18 16L19 16L19 15L18 15L18 14L17 14L17 13L16 13L16 12L15 12L15 11L14 11L14 10L13 10L11 9z"/>
<path style="fill:#5dbe8c; stroke:none;" d="M16 9L17 10L16 9z"/>
<path style="fill:#45b77e; stroke:none;" d="M27 9L28 10L27 9z"/>
<path style="fill:#5dbe8c; stroke:none;" d="M30 9L30 10L29 10L29 11L28 11L28 12L27 12L27 13L26 13L26 14L25 14L25 15L24 15L24 16L25 16L25 15L26 15L26 14L27 14L27 13L28 13L28 12L29 12L29 11L30 11L30 10L31 10L30 9z"/>
<path style="fill:#afd5ba; stroke:none;" d="M31 9L31 10L30 10L30 11L29 11L29 12L28 12L28 13L27 13L27 14L26 14L26 15L25 15L25 16L24 16L24 17L39 17L39 16L38 16L38 15L37 15L37 14L36 14L36 13L35 13L35 12L34 12L34 11L33 11L33 10L32 10L31 9z"/>
<path style="fill:#96ceac; stroke:none;" d="M32 9L33 10L32 9z"/>
<path style="fill:#7ec79e; stroke:none;" d="M36 9L37 10L36 9z"/>
<path style="fill:#5dbe8c; stroke:none;" d="M6 10L7 11L6 10z"/>
<path style="fill:#afd5ba; stroke:none;" d="M11 10L11 11L10 11L10 12L9 12L9 13L8 13L8 14L7 14L7 15L6 15L6 16L5 16L5 17L19 17L19 16L18 16L18 15L17 15L17 14L16 14L16 13L15 13L15 12L14 12L14 11L13 11L11 10z"/>
<path style="fill:#5dbe8c; stroke:none;" d="M17 10L18 11L17 10z"/>
<path style="fill:#45b77e; stroke:none;" d="M26 10L27 11L26 10z"/>
<path style="fill:#96ceac; stroke:none;" d="M33 10L34 11L33 10z"/>
<path style="fill:#7ec79e; stroke:none;" d="M37 10L38 11L37 10z"/>
<path style="fill:#5dbe8c; stroke:none;" d="M5 11L6 12L5 11M18 11L19 12L18 11z"/>
<path style="fill:#45b77e; stroke:none;" d="M25 11L26 12L25 11z"/>
<path style="fill:#96ceac; stroke:none;" d="M34 11L35 12L34 11z"/>
<path style="fill:#7ec79e; stroke:none;" d="M38 11L39 12L38 11z"/>
<path style="fill:#a7d3b5; stroke:none;" d="M0 12L0 13L1 13L1 14L2 14L2 13L1 13L0 12z"/>
<path style="fill:#5dbe8c; stroke:none;" d="M4 12L5 13L4 12M19 12L20 13L19 12z"/>
<path style="fill:#45b77e; stroke:none;" d="M24 12L25 13L24 12z"/>
<path style="fill:#96ceac; stroke:none;" d="M35 12L36 13L35 12z"/>
<path style="fill:#7ec79e; stroke:none;" d="M39 12L40 13L39 12z"/>
<path style="fill:#45b77e; stroke:none;" d="M0 13L1 14L0 13z"/>
<path style="fill:#5dbe8c; stroke:none;" d="M3 13L4 14L3 13M20 13L21 14L20 13z"/>
<path style="fill:#45b77e; stroke:none;" d="M23 13L24 14L23 13z"/>
<path style="fill:#96ceac; stroke:none;" d="M36 13L37 14L36 13z"/>
<path style="fill:#7ec79e; stroke:none;" d="M40 13L41 14L40 13z"/>
<path style="fill:#45b77e; stroke:none;" d="M1 14L2 15L1 14z"/>
<path style="fill:#5dbe8c; stroke:none;" d="M2 14L3 15L2 14M21 14L22 15L21 14z"/>
<path style="fill:#45b77e; stroke:none;" d="M22 14L23 15L22 14z"/>
<path style="fill:#96ceac; stroke:none;" d="M37 14L38 15L37 14z"/>
<path style="fill:#76c59a; stroke:none;" d="M41 14L42 15L41 14z"/>
<path style="fill:#96ceac; stroke:none;" d="M38 15L39 16L38 15z"/>
<path style="fill:#3cb579; stroke:none;" d="M0 16L1 17L0 16z"/>
<path style="fill:#9fd0b1; stroke:none;" d="M4 16L5 17L4 16M19 16L20 17L19 16z"/>
<path style="fill:#3cb579; stroke:none;" d="M23 16L24 17L23 16z"/>
<path style="fill:#7ec79e; stroke:none;" d="M39 16L40 17L39 16z"/>
</svg>
